<?xml version="1.0" standalone="no"?>
<!DOCTYPE svg PUBLIC "-//W3C//DTD SVG 20010904//EN"
 "http://www.w3.org/TR/2001/REC-SVG-20010904/DTD/svg10.dtd">
<svg version="1.0" xmlns="http://www.w3.org/2000/svg"
 width="260.000000pt" height="260.000000pt" viewBox="0 0 260.000000 260.000000"
 preserveAspectRatio="xMidYMid meet">
<metadata>
Created by potrace 1.11, written by Peter Selinger 2001-2013
</metadata>
<g transform="translate(0.000000,260.000000) scale(0.100000,-0.100000)"
fill="#000000" stroke="none">
<path d="M1169 2596 c-2 -2 -24 -6 -49 -9 -173 -21 -385 -101 -539 -205 -305
-206 -504 -517 -565 -882 -14 -84 -15 -339 -1 -405 19 -92 28 -128 51 -200 44
-139 145 -324 229 -420 219 -249 451 -387 758 -452 115 -24 381 -24 497 1 547
117 946 532 1034 1077 13 80 15 324 3 394 -74 426 -329 777 -701 963 -123 62
-275 112 -391 128 -39 6 -322 14 -326 10z"/>
</g>
</svg>
