<svg width="161" height="125" viewBox="0 0 161 125" fill="none" xmlns="http://www.w3.org/2000/svg">
<path d="M94.4536 28.5956L94.9902 26.7185C95.3927 25.3777 95.3927 24.4391 94.8561 24.0369C94.3194 23.6346 93.9169 23.3665 92.3069 23.3665H86.2694L80.7686 40.797C80.7686 40.797 83.3177 40.797 86.8061 40.797C88.5502 40.797 89.3552 40.5289 90.0261 40.1266C90.6969 39.5903 91.2336 38.7858 91.6361 37.445C91.6361 37.445 92.1727 35.836 92.9777 33.2885C93.3802 32.0817 93.2461 31.5454 92.8436 31.2773C93.5144 31.1432 93.9169 30.4728 94.4536 28.5956ZM92.4411 26.9867L91.7702 28.9979C91.5019 29.9364 90.8311 30.3387 89.6236 30.3387H88.0136C87.0744 30.3387 86.8061 30.3387 86.8061 30.3387L88.1477 25.914C88.1477 25.914 90.8311 25.914 91.2336 25.914C92.4411 25.914 92.5752 26.3162 92.4411 26.9867ZM90.2944 33.8248C90.1602 34.227 90.0261 34.6293 89.7577 35.4338L89.2211 37.1768C88.9527 38.1154 88.2819 38.5176 87.0744 38.5176H85.4644C84.5252 38.5176 84.1227 38.5176 84.1227 38.5176L85.8669 32.7521H86.6719H88.4161C88.8186 32.7521 88.9527 32.7521 89.4894 32.7521C90.4286 32.7521 90.5627 33.1544 90.2944 33.8248Z" fill="#005681"/>
<path d="M77.6825 23.3665L63.8633 40.797H66.815L68.6933 38.3836H75.5358L74.7308 40.797H77.1458L82.6466 23.3665H77.6825ZM76.3408 36.1042H70.7058L78.7558 25.914H79.9633L76.3408 36.1042Z" fill="#005681"/>
<path d="M53.6666 58.3617C38.1033 56.3505 42.2624 37.3109 31.2607 33.1544C31.3949 33.1544 31.3949 33.1544 31.5291 33.1544C37.4324 32.484 42.7991 36.3723 44.2749 42.1378C45.7508 47.6352 47.7633 52.328 53.6666 58.3617Z" fill="url(#paint0_linear)"/>
<path d="M107.468 58.3617C123.031 56.2164 118.872 37.1768 129.874 33.1544C129.739 33.1544 129.739 33.1544 129.605 33.1544C123.702 32.484 118.335 36.3723 116.859 42.1378C115.384 47.6352 113.371 52.328 107.468 58.3617Z" fill="url(#paint1_linear)"/>
<path d="M59.0336 43.8808C65.6078 55.68 80.3661 59.9706 92.1728 53.4006C95.2587 51.6576 97.8078 49.3782 99.8204 46.8306C97.5395 51.5235 93.7828 55.4118 88.8187 58.2275C75.8045 65.4679 59.4361 60.7751 52.1911 47.7692C43.6044 32.2158 49.2394 12.6399 64.8028 4.05871C70.3036 0.97484 76.3411 -0.231892 82.2445 0.0362709C78.2195 0.438515 74.3286 1.51117 70.572 3.65647C56.6186 11.4332 51.3861 28.7297 58.4969 42.8082C58.6311 43.2104 58.7653 43.6127 59.0336 43.8808Z" fill="url(#paint2_linear)"/>
<path d="M101.698 20.2825C95.1241 8.48333 80.2315 4.19273 68.4249 10.7627C65.339 12.5058 62.7898 14.7851 60.7773 17.3327C63.0582 12.6398 66.8149 8.75149 71.779 5.93579C84.7932 -1.3046 101.162 3.38824 108.407 16.3941C116.993 31.9476 111.358 51.3893 95.9291 59.9705C90.4282 63.0544 84.3907 64.2611 78.4874 63.993C82.5124 63.5907 86.4032 62.5181 90.1599 60.3728C104.113 52.5961 109.346 35.2996 102.235 21.2211C102.101 21.087 101.832 20.6847 101.698 20.2825Z" fill="url(#paint3_linear)"/>
<path d="M6.17168 92.2842L2.68334 85.3119L3.08584 90.273V96.4407H0V79.0101H2.95167L6.44001 86.7868L10.0625 79.0101H13.0142V96.4407H10.0625V90.273L10.465 85.3119L6.97668 92.2842H6.17168Z" fill="#005681"/>
<path d="M26.6998 79.0101V81.6918H19.8573V86.2505H25.7607V89.0662H19.8573V93.625H27.1023V96.4407H16.7715V79.0101H26.6998Z" fill="#005681"/>
<path d="M30.4556 93.625C31.7972 92.1501 31.9314 89.0663 31.9314 87.1891V78.8761C35.1514 78.8761 38.2372 78.8761 41.4572 78.8761V93.625H43.0672V98.8542H40.1156V96.3067C37.4322 96.3067 34.8831 96.3067 32.1997 96.3067V98.8542H29.248V93.625H30.4556ZM35.0172 87.3232C35.0172 89.2004 34.6147 92.0161 33.5414 93.7591C35.1514 93.7591 36.7614 93.7591 38.3714 93.7591V81.8259C37.2981 81.8259 36.0906 81.8259 35.0172 81.8259V87.3232Z" fill="#005681"/>
<path d="M45.8851 79.0101H48.971V83.1666L48.5685 90.5411L53.6668 79.0101H56.7527V96.4407H53.6668V92.016L53.9352 85.446L48.8368 96.5748H45.751V79.0101H45.8851Z" fill="#005681"/>
<path d="M60.375 79.0101H63.4608V93.625H68.5592V79.0101H71.645V93.625H73.255V98.8542H70.3034V96.3066H60.375V79.0101Z" fill="#005681"/>
<path d="M75.9385 79.0101H79.1585V83.1666L78.756 90.5411L83.8543 79.0101H86.9402V96.4407H83.8543V92.016L84.1227 85.446L79.0243 96.5748H75.9385V79.0101Z" fill="#005681"/>
<path d="M102.235 96.4407H99.1492V89.2003H93.6483V96.4407H90.5625V79.0101H93.6483V86.3846H99.1492V79.0101H102.235V96.4407Z" fill="#005681"/>
<path d="M117.262 91.0775C117.262 94.8318 115.384 96.4407 111.359 96.4407C107.2 96.4407 105.59 94.8318 105.59 91.2116V84.1053C105.59 80.4851 107.2 78.8761 111.359 78.8761C115.518 78.8761 117.262 80.351 117.262 84.2393H114.177C114.177 82.4963 113.774 81.5577 111.359 81.5577C109.078 81.5577 108.676 82.4963 108.676 84.1053V90.8093C108.676 92.4183 109.078 93.3569 111.359 93.3569C113.64 93.3569 114.177 92.4183 114.177 90.6752H117.262V91.0775Z" fill="#005681"/>
<path d="M129.203 96.4408L124.641 89.2004H123.433V96.4408H120.348V79.0102H123.433V85.9824H124.238C125.58 85.9824 125.849 84.7757 126.251 83.569C127.056 81.0214 127.727 78.4739 132.423 78.8761L132.154 81.8259C129.739 81.6918 129.739 82.4963 129.203 84.3734C128.8 85.7143 128.264 86.921 127.459 87.7255L133.094 96.3067H129.203V96.4408Z" fill="#005681"/>
<path d="M135.643 79.0101H138.729V83.1666L138.326 90.5411L143.425 79.0101H146.51V96.4407H143.425V92.016L143.693 85.446L138.595 96.5748H135.509V79.0101H135.643Z" fill="#005681"/>
<path d="M150.132 79.0102H153.218V83.1667L152.816 90.5412L157.914 79.0102H161V96.4407H157.914V92.0161L158.182 85.4461L153.084 96.5748H149.998V79.0102H150.132ZM151.876 74.4514H154.426C154.426 75.39 154.962 75.6581 155.901 75.6581C156.706 75.6581 157.243 75.39 157.243 74.4514H159.792C159.792 76.999 158.585 77.9375 155.901 77.9375C153.084 77.9375 151.876 76.8649 151.876 74.4514Z" fill="#005681"/>
<path d="M47.2266 105.156H50.3124V119.771H55.4107V105.156H58.4966V119.771H60.1066V125H57.1549V122.452H47.2266V105.156Z" fill="#005681"/>
<path d="M72.8532 105.156V107.838H66.0106V112.262H71.914V115.078H66.0106V119.637H73.2557V122.453H62.9248V105.022H72.8532V105.156Z" fill="#005681"/>
<path d="M87.7448 122.587H84.6589V115.346H79.1581V122.587H76.0723V105.156H79.1581V112.53H84.6589V105.156H87.7448V122.587Z" fill="#005681"/>
<path d="M100.76 107.972H97.1371V122.587H94.0512V107.972H90.4287V105.156H100.76V107.972Z" fill="#005681"/>
<path d="M107.736 105.156C111.895 105.156 113.908 106.631 113.908 110.385V111.994C113.908 115.614 111.895 117.223 107.736 117.223H106.529V122.587H103.309V105.156H107.736ZM107.736 114.274C110.017 114.274 110.688 113.469 110.688 111.86V110.519C110.688 108.91 110.151 107.972 107.736 107.972H106.529V114.274H107.736Z" fill="#005681"/>
<defs>
<linearGradient id="paint0_linear" x1="31.2485" y1="45.7183" x2="53.618" y2="45.7183" gradientUnits="userSpaceOnUse">
<stop stop-color="#00AFE8"/>
<stop offset="1" stop-color="#31B7BC"/>
</linearGradient>
<linearGradient id="paint1_linear" x1="129.849" y1="45.7183" x2="107.479" y2="45.7183" gradientUnits="userSpaceOnUse">
<stop stop-color="#00AFE8"/>
<stop offset="1" stop-color="#31B7BC"/>
</linearGradient>
<linearGradient id="paint2_linear" x1="48.2106" y1="30.7799" x2="99.7776" y2="30.7799" gradientUnits="userSpaceOnUse">
<stop stop-color="#00AFE8"/>
<stop offset="1" stop-color="#31B7BC"/>
</linearGradient>
<linearGradient id="paint3_linear" x1="60.8472" y1="33.4389" x2="112.414" y2="33.4389" gradientUnits="userSpaceOnUse">
<stop stop-color="#00AFE8"/>
<stop offset="1" stop-color="#0067A2"/>
</linearGradient>
</defs>
</svg>