<svg version="1.1" xmlns="http://www.w3.org/2000/svg" xmlns:xlink="http://www.w3.org/1999/xlink" x="0px" y="0px"
	 viewBox="0 0 512 512" enable-background="new 0 0 512 512" xml:space="preserve">
<rect fill="#28A5A2" width="512" height="512"/>
<path d="M150, 350, 150, 200, 358, 150, 358, 250, 385, 305, 365, 320, 366, 356, 308, 404, 242, 431, 192, 366, 175, 354,  z" fill="#fff"/>
<g transform="translate(0.000000,512.000000) scale(0.100000,-0.100000)" fill="#2C3034">
	<path d="M2188,4199c-129-20-300-95-397-174c-75-61-217-212-236-253c-18-37-21-39-27-19c-3,12-6,102-7,200c-1,202-4,209-71,162 c-51-35-176-174-220-245c-31-48-35-64-38-130c-3-56,2-90,17-134c12-33,21-62,21-66c0-10-85.5-58.3-89.7-66.6 c-3.3-3.4-22.3-24.4-42.3-42.4c-53-46-126-146-155-211c-34-75-58.2-214-51.1-272.8c1.4-12,15.1-17.9,25-11 c10.6,7.4,24.4,18.5,39.1,31.8c29,26,72,59,95,72l11.9,6.5c11.9,6.5,25.9-3.9,23.2-17.2l-0.1-0.3c-4-19-9-60-13-91 c-3-32-5-305,12-378c36-156,118-294,248-416c61-57,66-66,80-130c15-67,38-231,54-384c7-60,11-74,23-70c8,3,58,5,110,5 c92,0,98-2,155-35c87.8-52.1,449.3-468.7,505-550c8-12,39-54,68-93c30-40,60-84,68-100c8-15,20-27,28-27c7,0,78,31,157,69 c314,150,562,234,601,204c22-18,110-43,148-43c20,0,90,14,156,31c65,17,129,34,141,36c40,9,44,24,32,109c-7,47-9,136-6,219 c6,135,7,141,32,160c30,25,32,58,5,103c-11,18-20,36-20,41c0,4,19,12,43,17l29.7,6.4c7.2,1.5,12.4,7.8,12.6,15.2l2.7,117.4 c1,71,6,132,11,135c10,7,85,67,128,104c19,16,40,41,48,56c13,25,12,30-13,58c-15,17-43,51-62,76s-50,63-67,83c-18,21-33,42-33,47 c0,4-13,25-28,45c-37,47-114,186-138,246c-16,43-16,54-4,119c8,39,16,127,20,195c5,122,5,125,30,132c14,4,78,24,142,44 c65,20,120,36,124,35c34-9-8,140-64,230c-16.3,26.2-29.4,51.7-31.8,56.4c-0.3,0.6-0.6,1-0.9,1.6l-8.9,13.3 c-0.6,0.8-1.2,1.6-1.9,2.3c-3.7,3.7-17.4,17.5-38.5,40.3c-49,53-143,129-182,146c-15,7-25,21-26,37c-3,32,21,159,42,228 c9,28,16,56,16,63c0,27-212,108-375,144c-93,20-457,17-572-5c-130-25-272-68-382-115c-52-23-96-40-98-38c-1,1,15,40,37,85 s40,86,40,90C2270,4208,2245,4208,2188,4199z M3456,3307c33-24,65-51,72-60c17-20,27-171,18-269l-5.7-61.5 c-0.7-7.8-7-13.9-14.8-14.4l-98.4-6.2c-208-12-362-36-697-105c-217-45-245-48-254-25c-15,40-4,80,51,172c58,99,143,271,143,289 c0,6,6,16,14,22c11,10,27-3,84-69c38-44,85-103,103-130c36-52,51-60,116-60h27.1c7.9,0,14.7,5.9,15.8,13.7l5.1,37.3 c4,28,5,90,2,138l-6,86l13-52c8-28,17-90,21-137l6-73.3c0.6-7,5.6-12.7,12.5-14.2l34.5-7.5c109-22,253-43,260-36c4,4,7,96,7,206 c0,109,3,199,6,199C3395,3350,3424,3331,3456,3307z M1901,2745c60-21,111-68,157-145c38-64,40-65,86-68s46-3,46-40 c-1-161-33-347-96-548c-36-118-26-184,63-392c32-73,41-86,76-104c23-11,176-73,342-138c165-64,332-132,370-149l35.4-16.2 c12.8-5.9,12.2-24.3-1-29.3L2915,1091c-138-53-213-88-354-166c-48.7-26.9-91.6-49.1-112.2-58.8c-7.1-3.4-15.5-1-19.9,5.5 c-9,13.3-25.5,37.4-43.9,63.3c-158,228-295,397-434,534l-108.9,107c-3.8,3.7-5.5,9.2-4.5,14.4L1863,1719c15,75,27,143,27,152 s-28,60-63,115c-164,260-214,371-236,529c-18,124,20,210,102,234C1744,2764,1852,2761,1901,2745z M3484,2742c3-5,1-75-4-157 c-8-140-10-150-34-174c-14-14-29-21-33-17s-8,83-8,174v154c0,7.6,5.4,14.1,12.8,15.6l17.2,3.4c17,4,33,7,37,8 C3476,2749,3481,2746,3484,2742z M3273,2513c6-190,18-307,32-321c2-3,26-5,51-4c45,0,49,3,130,87l79.5,81.4c2.9,3,4.5,7,4.5,11.1 v53.5c0,32,3,59,8,59c4,0,36-51,72-112s89-145,119-187l44.8-63.4c4.7-6.6,3.6-15.7-2.5-21.1L3779,2068c-54-46-75-52-269-73 c-190-20-254-41-465-147l-149.2-74.6c-6.4-3.2-14.1-1.7-18.9,3.5L2844,1813c-49,54-192,243-267,353c-59,88-52,56-76,351l-5,68.3 c-0.6,7.9,4.7,15,12.4,16.7l31.6,7c62,13,673,108,711,110C3265,2720,3268,2694,3273,2513z M3632,1634c27-55,27-55-90-79 c-130-27-126-24-146-99c-10-36-23-66-29-66c-15,0-187,103-187,112c0,20,362,178,408,178C3605,1680,3616,1669,3632,1634z"/>
</g>
</svg>
